<svg width="1280" height="720" xmlns="http://www.w3.org/2000/svg" xmlns:xlink="http://www.w3.org/1999/xlink" overflow="hidden"><g><rect x="0" y="0" width="1280" height="720" fill="#FFFFFF"/><rect x="39" y="39" width="303" height="76" stroke="#172C51" stroke-width="2" stroke-miterlimit="8" fill="none"/><text font-family="Comic Sans MS,Comic Sans MS_MSFontService,sans-serif" font-weight="700" font-size="24" transform="translate(96.0644 71)">Model Compound</text><text font-family="Comic Sans MS,Comic Sans MS_MSFontService,sans-serif" font-weight="700" font-size="24" transform="translate(137.818 100)">Selection</text><rect x="418" y="20" width="340" height="114" stroke="#172C51" stroke-width="2" stroke-miterlimit="8" fill="none"/><text font-family="Comic Sans MS,Comic Sans MS_MSFontService,sans-serif" font-weight="700" font-size="24" transform="translate(429.045 71)">QM Geometry Optimization</text><text font-family="Comic Sans MS,Comic Sans MS_MSFontService,sans-serif" font-weight="700" font-size="24" transform="translate(488.632 100)">at MP2/6</text><text font-family="Comic Sans MS,Comic Sans MS_MSFontService,sans-serif" font-weight="700" font-size="24" transform="translate(599.299 100)">-</text><text font-family="Comic Sans MS,Comic Sans MS_MSFontService,sans-serif" font-weight="700" font-size="24" transform="translate(613.965 100)">31g(d)</text><rect x="418" y="190" width="340" height="113" stroke="#172C51" stroke-width="2" stroke-miterlimit="8" fill="none"/><text font-family="Comic Sans MS,Comic Sans MS_MSFontService,sans-serif" font-weight="700" font-size="24" transform="translate(453.545 226)">Optimization</text><text font-family="Comic Sans MS,Comic Sans MS_MSFontService,sans-serif" font-weight="700" font-size="24" transform="translate(608.545 226)">of</text><text font-family="Comic Sans MS,Comic Sans MS_MSFontService,sans-serif" font-weight="700" font-size="24" transform="translate(643.712 226)">Atomic</text><text font-family="Comic Sans MS,Comic Sans MS_MSFontService,sans-serif" font-weight="700" font-size="24" transform="translate(486.799 255)">Charges and</text><text font-family="Comic Sans MS,Comic Sans MS_MSFontService,sans-serif" font-weight="700" font-size="24" transform="translate(638.799 255)">vdW</text><text font-family="Comic Sans MS,Comic Sans MS_MSFontService,sans-serif" font-weight="700" font-size="24" transform="translate(522.632 283)">Parameters</text><rect x="418" y="359" width="340" height="76" stroke="#172C51" stroke-width="2" stroke-miterlimit="8" fill="none"/><text font-family="Comic Sans MS,Comic Sans MS_MSFontService,sans-serif" font-weight="700" font-size="24" transform="translate(434.879 391)">Optimization</text><text font-family="Comic Sans MS,Comic Sans MS_MSFontService,sans-serif" font-weight="700" font-size="24" transform="translate(589.879 391)">of</text><text font-family="Comic Sans MS,Comic Sans MS_MSFontService,sans-serif" font-weight="700" font-size="24" transform="translate(625.045 391)">Geometric</text><text font-family="Comic Sans MS,Comic Sans MS_MSFontService,sans-serif" font-weight="700" font-size="24" transform="translate(522.632 420)">Parameters</text><path d="M766 246 870.4 246 870.4 399.702 759.833 399.702 759.833 396.702 868.9 396.702 867.4 398.202 867.4 247.5 868.9 249 766 249ZM767.5 252 758.5 247.5 767.5 243Z"/><path d="M0-1.5 39.6522-1.5 39.6522 0.302362 38.1522-1.19764 68.8045-1.19764 68.8045 1.80236 36.6522 1.80236 36.6522 0 38.1522 1.5 0 1.5ZM67.3045-4.19764 76.3045 0.302362 67.3045 4.80236Z" transform="matrix(1 0 0 -1 342.5 77.8024)"/><path d="M590 134.5 590 183.214 587 183.214 587 134.5ZM593 181.714 588.5 190.714 584 181.714Z"/><path d="M590 303.5 590 352.214 587 352.214 587 303.5ZM593 350.714 588.5 359.714 584 350.714Z"/><rect x="418" y="491" width="340" height="76" stroke="#172C51" stroke-width="2" stroke-miterlimit="8" fill="none"/><text font-family="Comic Sans MS,Comic Sans MS_MSFontService,sans-serif" font-weight="700" font-size="24" transform="translate(457.379 538)">Testing of Parameters</text><path d="M591 435.5 591 484.214 588 484.214 588 435.5ZM594 482.714 589.5 491.714 585 482.714Z"/><path d="M419.833 531.507 262.067 531.507 262.067 246 411 246 411 249 263.567 249 265.067 247.5 265.067 530.007 263.567 528.507 419.833 528.507ZM409.5 243 418.5 247.5 409.5 252Z"/><rect x="418" y="623" width="340" height="76" stroke="#172C51" stroke-width="2" stroke-miterlimit="8" fill="none"/><text font-family="Comic Sans MS,Comic Sans MS_MSFontService,sans-serif" font-weight="700" font-size="24" transform="translate(490.712 669)">Final Parameters</text><path d="M590 567.5 590 616.214 587 616.214 587 567.5ZM593 614.714 588.5 623.714 584 614.714Z"/><text font-family="Comic Sans MS,Comic Sans MS_MSFontService,sans-serif" font-weight="700" font-size="24" transform="translate(889.6 312)">Repeat Until Convergence</text><text font-family="Comic Sans MS,Comic Sans MS_MSFontService,sans-serif" font-weight="700" font-size="24" transform="translate(90.7834 334)">Repeat Until</text><text font-family="Comic Sans MS,Comic Sans MS_MSFontService,sans-serif" font-weight="700" font-size="24" transform="translate(92.6167 363)">Convergence</text></g></svg>